<?xml version="1.0"?>
<svg xmlns="http://www.w3.org/2000/svg" id="Layer_5" enable-background="new 0 0 64 64" height="512px" viewBox="0 0 64 64" width="512px"><g><path d="m55.661 49.702-8.327-2.939c-.739-.26-1.233-.934-1.305-1.703.958-.679 1.826-1.466 2.579-2.348 4.497-2.158 7.392-6.723 7.392-11.712v-1c0-7.72-6.28-14-14-14-4.462 0-8.435 2.106-11 5.368v-15.368c0-2.757-2.243-5-5-5h-20c-2.757 0-5 2.243-5 5v26c0 2.757 2.243 5 5 5h9.586l5.293 5.294c.45.448 1.072.706 1.707.706 1.331 0 2.414-1.083 2.414-2.414v-3.586h4.485c1.28 2.447 3.329 4.475 5.907 5.711.754.882 1.621 1.669 2.579 2.348-.072.769-.567 1.443-1.306 1.703l-8.327 2.939c-2.209.78-4.052 2.224-5.339 4.058v-5.759c0-2.757-2.243-5-5-5h-2v-1.586c.001-1.331-1.082-2.414-2.413-2.414-.635 0-1.257.258-1.707.707l-3.293 3.293h-2.586c-2.757 0-5 2.243-5 5v8c0 2.757 2.243 5 5 5h12c1.132 0 2.165-.392 3.004-1.029 0 .035-.004.069-.004.104v2.925h42v-2.925c0-4.655-2.949-8.823-7.339-10.373zm-34.661 6.298c0 1.654-1.346 3-3 3h-12c-1.654 0-3-1.346-3-3v-8c0-1.654 1.346-3 3-3h3.414l3.878-3.878c.241-.242.708-.045.708.292v3.586h4c1.654 0 3 1.346 3 3zm25.74-7.326.541.191-.965 5.306-2.819-2.255zm-23.74-13.674v5.586c0 .337-.467.531-.707.293l-5.879-5.879h-10.414c-1.654 0-3-1.346-3-3v-26c0-1.654 1.346-3 3-3h20c1.654 0 3 1.346 3 3v18.834c-.638 1.601-1 3.341-1 5.166v1c0 1.38.228 2.726.644 4zm7-4v-1c0-6.617 5.383-12 12-12s12 5.383 12 12v1c0 2.777-1.064 5.396-2.872 7.386.56-1.531.872-3.173.872-4.873v-4.513h-7c-3.009 0-5.992-.995-8.4-2.8l-.694-.521-3.906 3.907v3.927c0 1.701.312 3.342.872 4.874-1.808-1.991-2.872-4.61-2.872-7.387zm4 2.513v-3.099l2.111-2.111c2.617 1.744 5.741 2.697 8.889 2.697h5v2.513c0 5.131-3.201 9.682-8 11.429-4.799-1.748-8-6.298-8-11.429zm7.684 13.435.316.106.316-.105c.659-.22 1.29-.49 1.897-.795.176.519.458.992.823 1.397l-3.036 3.035-3.036-3.036c.364-.404.647-.878.823-1.397.607.305 1.237.576 1.897.795zm-1.181 4.969-2.819 2.255-.965-5.306.541-.191zm20.497 9.083h-6v-4h-2v4h-22v-4h-2v4h-6v-.925c0-3.809 2.413-7.219 6.005-8.486l5.804-2.049 1.507 8.288 5.684-4.547 5.684 4.547 1.507-8.288 5.804 2.049c3.592 1.267 6.005 4.678 6.005 8.486z" data-original="#000000" class="active-path" data-old_color="#000000" fill="#ECC305"/><path d="m24 14h-1v-3.757c0-1.713-.667-3.324-1.879-4.536-.456-.456-1.062-.707-1.707-.707-1.331 0-2.414 1.083-2.414 2.414v3.35c0 1.615-.897 3.066-2.341 3.789-.586.292-1.241.447-1.895.447h-1.764v-2h-6v20h6v-2h.764l.88.44c.731.366 1.551.56 2.371.56h8.985c1.654 0 3-1.346 3-3 0-.771-.301-1.468-.78-2 .48-.532.78-1.229.78-2s-.301-1.468-.78-2c.48-.532.78-1.229.78-2s-.301-1.468-.78-2c.48-.532.78-1.229.78-2 0-1.654-1.346-3-3-3zm-15 17h-2v-16h2zm15-1h-8.985c-.51 0-1.02-.121-1.476-.349l-1.303-.651h-1.236v-12h1.764c.962 0 1.927-.228 2.789-.658 2.126-1.064 3.447-3.201 3.447-5.578v-3.35c0-.338.469-.531.707-.293.834.834 1.293 1.942 1.293 3.122v5.757h3c.551 0 1 .449 1 1s-.449 1-1 1h-3v2h3c.551 0 1 .449 1 1s-.449 1-1 1h-3v2h3c.551 0 1 .449 1 1s-.449 1-1 1h-3v2h3c.551 0 1 .449 1 1s-.449 1-1 1z" data-original="#000000" class="active-path" data-old_color="#000000" fill="#ECC305"/><path d="m16.994 51.606c-.065-.586-.317-1.287-.751-2.086l-.287-.527-1.8.014-.601-1.787-.563-.116c-.667-.137-1.316-.137-1.983 0l-.567.117-.588 1.784-1.915-.009-.286.525c-.322.591-.569 1.39-.646 2.085l-.063.566 1.567 1.181-.601 1.918.376.423c.455.513.993.919 1.598 1.208l.548.262 1.568-1.182 1.569 1.182.548-.262c.605-.289 1.143-.695 1.598-1.208l.376-.423-.601-1.918 1.567-1.181zm-3.835.999.668 2.133c-.025.021-.051.04-.077.06l-1.75-1.319-1.751 1.319c-.026-.02-.051-.039-.077-.06l.668-2.133-1.743-1.313c.026-.098.056-.195.088-.29l2.111.009.664-2.011h.083l.678 2.019 2.025-.016c.048.108.09.213.126.312z" data-original="#000000" class="active-path" data-old_color="#000000" fill="#ECC305"/></g> </svg>
